<svg width="191.20624999999998px" height="114.2px" xmlns="http://www.w3.org/2000/svg" viewBox="154.39687500000002 17.9 191.20624999999998 114.2" style="background: rgba(0, 0, 0, 0);" preserveAspectRatio="xMidYMid"><defs><filter id="editing-hole" x="-100%" y="-100%" width="300%" height="300%"><feFlood flood-color="#000" result="black"></feFlood><feMorphology operator="dilate" radius="2" in="SourceGraphic" result="erode"></feMorphology><feGaussianBlur in="erode" stdDeviation="4" result="blur"></feGaussianBlur><feOffset in="blur" dx="2" dy="2" result="offset"></feOffset><feComposite operator="atop" in="offset" in2="black" result="merge"></feComposite><feComposite operator="in" in="merge" in2="SourceGraphic" result="inner-shadow"></feComposite></filter></defs><g filter="url(#editing-hole)"><g transform="translate(185.55000495910645, 98.58500671386719)"><path d="M4.74 0L4.74-44.03L40.32-44.03L40.32-33.47L18.88-33.47L18.88-25.92L37.31-25.92L37.31-15.81L18.88-15.81L18.88 0L4.74 0ZM64-34.56L64-34.56Q73.28-34.56 78.18-30.21L78.18-30.21L78.18-30.21Q83.07-25.86 83.07-16.90L83.07-16.90L83.07-14.72L57.73-14.72L57.73-14.72Q57.73-11.07 59.36-9.22L59.36-9.22L59.36-9.22Q60.99-7.36 64.51-7.36L64.51-7.36L64.51-7.36Q67.71-7.36 69.22-8.70L69.22-8.70L69.22-8.70Q70.72-10.05 70.72-12.29L70.72-12.29L83.07-12.29L83.07-12.29Q83.07-6.14 78.40-2.69L78.40-2.69L78.40-2.69Q73.73 0.77 64.77 0.77L64.77 0.77L64.77 0.77Q55.36 0.77 50.18-3.62L50.18-3.62L50.18-3.62Q44.99-8 44.99-16.90L44.99-16.90L44.99-16.90Q44.99-25.60 50.05-30.08L50.05-30.08L50.05-30.08Q55.10-34.56 64-34.56L64-34.56ZM64.51-26.43L64.51-26.43Q58.50-26.43 57.79-20.74L57.79-20.74L70.21-20.74L70.21-20.74Q70.21-23.36 68.70-24.90L68.70-24.90L68.70-24.90Q67.20-26.43 64.51-26.43L64.51-26.43ZM124.16 0L113.79 0L112.70-4.80L112.70-4.80Q108.99 0.77 101.95 0.77L101.95 0.77L101.95 0.77Q95.10 0.77 91.39-3.71L91.39-3.71L91.39-3.71Q87.68-8.19 87.68-16.96L87.68-16.96L87.68-16.96Q87.68-25.66 91.39-30.11L91.39-30.11L91.39-30.11Q95.10-34.56 101.95-34.56L101.95-34.56L101.95-34.56Q107.78-34.56 111.42-30.66L111.42-30.66L111.42-46.40L124.16-46.40L124.16 0ZM105.92-25.15L105.92-25.15Q100.42-25.15 100.42-18.56L100.42-18.56L100.42-15.17L100.42-15.17Q100.42-8.64 105.92-8.64L105.92-8.64L105.92-8.64Q108.74-8.64 110.14-10.62L110.14-10.62L110.14-10.62Q111.55-12.61 111.55-15.81L111.55-15.81L111.55-17.92L111.55-17.92Q111.55-21.12 110.14-23.14L110.14-23.14L110.14-23.14Q108.74-25.15 105.92-25.15L105.92-25.15Z" fill="#ccc"></path></g></g><style>text {
  font-size: 64px;
  font-family: Arial Black;
  dominant-baseline: central;
  text-anchor: middle;
}</style></svg>